<?xml version="1.0" encoding="UTF-8"?><svg id="Layer_1" xmlns="http://www.w3.org/2000/svg" viewBox="0 0 300 300"><defs><style>.cls-1{fill:#fff;}</style></defs><path class="cls-1" d="m111.47,132.75c-2-3.67-4.75-6.46-8.25-8.38-3.5-1.92-7.58-2.88-12.25-2.88-5.17,0-9.75,1.17-13.75,3.5-4,2.33-7.12,5.67-9.38,10-2.25,4.33-3.38,9.33-3.38,15s1.14,10.92,3.44,15.25c2.29,4.33,5.48,7.67,9.56,10,4.08,2.33,8.83,3.5,14.25,3.5,6.67,0,12.12-1.77,16.38-5.31,4.25-3.54,7.04-8.48,8.38-14.81h-30v-13.38h47.25v15.25c-1.17,6.08-3.67,11.71-7.5,16.88-3.83,5.17-8.77,9.31-14.81,12.44-6.04,3.12-12.81,4.69-20.31,4.69-8.42,0-16.02-1.89-22.81-5.69-6.79-3.79-12.12-9.06-16-15.81s-5.81-14.42-5.81-23,1.94-16.27,5.81-23.06c3.88-6.79,9.21-12.08,16-15.88,6.79-3.79,14.35-5.69,22.69-5.69,9.83,0,18.38,2.4,25.62,7.19,7.25,4.79,12.25,11.52,15,20.19h-20.12Z"/><path class="cls-1" d="m207.46,132.75c-2-3.67-4.75-6.46-8.25-8.38-3.5-1.92-7.58-2.88-12.25-2.88-5.17,0-9.75,1.17-13.75,3.5-4,2.33-7.12,5.67-9.38,10-2.25,4.33-3.38,9.33-3.38,15s1.14,10.92,3.44,15.25c2.29,4.33,5.48,7.67,9.56,10,4.08,2.33,8.83,3.5,14.25,3.5,6.67,0,12.12-1.77,16.38-5.31,4.25-3.54,7.04-8.48,8.38-14.81h-30v-13.38h47.25v15.25c-1.17,6.08-3.67,11.71-7.5,16.88-3.83,5.17-8.77,9.31-14.81,12.44-6.04,3.12-12.81,4.69-20.31,4.69-8.42,0-16.02-1.89-22.81-5.69-6.79-3.79-12.12-9.06-16-15.81s-5.81-14.42-5.81-23,1.94-16.27,5.81-23.06c3.88-6.79,9.21-12.08,16-15.88,6.79-3.79,14.35-5.69,22.69-5.69,9.83,0,18.38,2.4,25.62,7.19,7.25,4.79,12.25,11.52,15,20.19h-20.12Z"/><path class="cls-1" d="m235.1,191.69c-2.04-1.96-3.06-4.39-3.06-7.31s1.02-5.35,3.06-7.31c2.04-1.96,4.64-2.94,7.81-2.94s5.62.98,7.62,2.94c2,1.96,3,4.4,3,7.31s-1,5.36-3,7.31c-2,1.96-4.54,2.94-7.62,2.94s-5.77-.98-7.81-2.94Z"/></svg>